{
  "accessors": [
    {
      "bufferView": 2,
      "componentType": 5126,
      "count": 541,
      "max": [
        6.460546016693115,
        4.641884803771973,
        11.44350814819336
      ],
      "min": [
        -6.460546016693115,
        1.416746973991394,
        -6.751011848449707
      ],
      "type": "VEC3"
    },
    {
      "bufferView": 2,
      "byteOffset": 6492,
      "componentType": 5126,
      "count": 541,
      "max": [
        0.9992409944534302,
        0.9987865686416626,
        0.976047933101654
      ],
      "min": [
        -0.9992409944534302,
        -0.9950235486030579,
        -0.9823915362358093
      ],
      "type": "VEC3"
    },
    {
      "bufferView": 1,
      "componentType": 5126,
      "count": 541,
      "max": [
        0.9955249428749084,
        0.9957389831542969
      ],
      "min": [
        0.002053000032901764,
        0.14368999004364014
      ],
      "type": "VEC2"
    },
    {
      "bufferView": 1,
      "byteOffset": 4328,
      "componentType": 5126,
      "count": 541,
      "max": [
        0.9955249428749084,
        0.9957389831542969
      ],
      "min": [
        0.002053000032901764,
        0.14368999004364014
      ],
      "type": "VEC2"
    },
    {
      "bufferView": 1,
      "byteOffset": 8656,
      "componentType": 5126,
      "count": 541,
      "max": [
        0.9955249428749084,
        0.9957389831542969
      ],
      "min": [
        0.002053000032901764,
        0.14368999004364014
      ],
      "type": "VEC2"
    },
    {
      "bufferView": 1,
      "byteOffset": 12984,
      "componentType": 5126,
      "count": 541,
      "max": [
        0.9955249428749084,
        0.9957389831542969
      ],
      "min": [
        0.002053000032901764,
        0.14368999004364014
      ],
      "type": "VEC2"
    },
    {
      "bufferView": 0,
      "componentType": 5125,
      "count": 951,
      "type": "SCALAR"
    },
    {
      "bufferView": 2,
      "byteOffset": 12984,
      "componentType": 5126,
      "count": 860,
      "max": [
        7.279651165008545,
        3.984018325805664,
        11.116928100585938
      ],
      "min": [
        -7.279651165008545,
        0.6659849286079407,
        -7.0719218254089355
      ],
      "type": "VEC3"
    },
    {
      "bufferView": 2,
      "byteOffset": 23304,
      "componentType": 5126,
      "count": 860,
      "max": [
        1.0,
        0.9987850785255432,
        0.9987850189208984
      ],
      "min": [
        -1.0,
        -1.0,
        -0.9987850785255432
      ],
      "type": "VEC3"
    },
    {
      "bufferView": 1,
      "byteOffset": 17312,
      "componentType": 5126,
      "count": 860,
      "max": [
        0.997874915599823,
        0.9947199821472168
      ],
      "min": [
        0.002257999964058399,
        0.0296890027821064
      ],
      "type": "VEC2"
    },
    {
      "bufferView": 1,
      "byteOffset": 24192,
      "componentType": 5126,
      "count": 860,
      "max": [
        0.997874915599823,
        0.9947199821472168
      ],
      "min": [
        0.002257999964058399,
        0.0296890027821064
      ],
      "type": "VEC2"
    },
    {
      "bufferView": 1,
      "byteOffset": 31072,
      "componentType": 5126,
      "count": 860,
      "max": [
        0.997874915599823,
        0.9947199821472168
      ],
      "min": [
        0.002257999964058399,
        0.0296890027821064
      ],
      "type": "VEC2"
    },
    {
      "bufferView": 1,
      "byteOffset": 37952,
      "componentType": 5126,
      "count": 860,
      "max": [
        0.997874915599823,
        0.9947199821472168
      ],
      "min": [
        0.002257999964058399,
        0.0296890027821064
      ],
      "type": "VEC2"
    },
    {
      "bufferView": 0,
      "byteOffset": 3804,
      "componentType": 5125,
      "count": 1260,
      "type": "SCALAR"
    },
    {
      "bufferView": 2,
      "byteOffset": 33624,
      "componentType": 5126,
      "count": 16,
      "max": [
        3.169360876083374,
        3.318511962890625,
        -6.451067924499512
      ],
      "min": [
        -3.169360876083374,
        2.577831983566284,
        -6.858911991119385
      ],
      "type": "VEC3"
    },
    {
      "bufferView": 2,
      "byteOffset": 33816,
      "componentType": 5126,
      "count": 16,
      "max": [
        0.34047582745552063,
        0.3590083122253418,
        -0.8693917989730835
      ],
      "min": [
        -0.3404758870601654,
        -0.26858723163604736,
        -0.9878765940666199
      ],
      "type": "VEC3"
    },
    {
      "bufferView": 1,
      "byteOffset": 44832,
      "componentType": 5126,
      "count": 16,
      "max": [
        1.0,
        1.0
      ],
      "min": [
        1.9999999949504854e-06,
        0.0
      ],
      "type": "VEC2"
    },
    {
      "bufferView": 0,
      "byteOffset": 8844,
      "componentType": 5125,
      "count": 60,
      "type": "SCALAR"
    },
    {
      "bufferView": 2,
      "byteOffset": 34008,
      "componentType": 5126,
      "count": 86,
      "max": [
        1.993595004081726,
        5.82582950592041,
        -3.201953887939453
      ],
      "min": [
        -1.993595004081726,
        3.664977788925171,
        -6.021492958068848
      ],
      "type": "VEC3"
    },
    {
      "bufferView": 2,
      "byteOffset": 35040,
      "componentType": 5126,
      "count": 86,
      "max": [
        0.9610879421234131,
        0.9929279088973999,
        -0.11871934682130814
      ],
      "min": [
        -0.9610879421234131,
        0.19243064522743225,
        -0.9813106060028076
      ],
      "type": "VEC3"
    },
    {
      "bufferView": 3,
      "componentType": 5126,
      "count": 86,
      "max": [
        1.0,
        0.2335330694913864,
        0.9862213730812073,
        1.0
      ],
      "min": [
        -1.0,
        -0.2799511253833771,
        -0.9794723391532898,
        -1.0
      ],
      "type": "VEC4"
    },
    {
      "bufferView": 1,
      "byteOffset": 44960,
      "componentType": 5126,
      "count": 86,
      "max": [
        0.9911929965019226,
        0.25765499472618103
      ],
      "min": [
        0.09950199723243713,
        0.008218999952077866
      ],
      "type": "VEC2"
    },
    {
      "bufferView": 1,
      "byteOffset": 45648,
      "componentType": 5126,
      "count": 86,
      "max": [
        0.9911929965019226,
        0.25765499472618103
      ],
      "min": [
        0.09950199723243713,
        0.008218999952077866
      ],
      "type": "VEC2"
    },
    {
      "bufferView": 1,
      "byteOffset": 46336,
      "componentType": 5126,
      "count": 86,
      "max": [
        0.9911929965019226,
        0.25765499472618103
      ],
      "min": [
        0.09950199723243713,
        0.008218999952077866
      ],
      "type": "VEC2"
    },
    {
      "bufferView": 1,
      "byteOffset": 47024,
      "componentType": 5126,
      "count": 86,
      "max": [
        0.9911929965019226,
        0.25765499472618103
      ],
      "min": [
        0.09950199723243713,
        0.008218999952077866
      ],
      "type": "VEC2"
    },
    {
      "bufferView": 1,
      "byteOffset": 47712,
      "componentType": 5126,
      "count": 86,
      "max": [
        0.9911929965019226,
        0.25765499472618103
      ],
      "min": [
        0.09950199723243713,
        0.008218999952077866
      ],
      "type": "VEC2"
    },
    {
      "bufferView": 0,
      "byteOffset": 9084,
      "componentType": 5125,
      "count": 177,
      "type": "SCALAR"
    },
    {
      "bufferView": 2,
      "byteOffset": 36072,
      "componentType": 5126,
      "count": 144,
      "max": [
        2.03009295463562,
        6.895576000213623,
        4.38920259475708
      ],
      "min": [
        -2.03009295463562,
        3.4154212474823,
        2.070528984069824
      ],
      "type": "VEC3"
    },
    {
      "bufferView": 2,
      "byteOffset": 37800,
      "componentType": 5126,
      "count": 144,
      "max": [
        1.0,
        0.9959483742713928,
        0.97397381067276
      ],
      "min": [
        -1.0,
        -0.995948314666748,
        -0.9739734530448914
      ],
      "type": "VEC3"
    },
    {
      "bufferView": 1,
      "byteOffset": 48400,
      "componentType": 5126,
      "count": 144,
      "max": [
        0.6846539974212646,
        0.9937779903411865
      ],
      "min": [
        0.4104920029640198,
        0.9413939714431763
      ],
      "type": "VEC2"
    },
    {
      "bufferView": 1,
      "byteOffset": 49552,
      "componentType": 5126,
      "count": 144,
      "max": [
        0.6846539974212646,
        0.9937779903411865
      ],
      "min": [
        0.4104920029640198,
        0.9413939714431763
      ],
      "type": "VEC2"
    },
    {
      "bufferView": 1,
      "byteOffset": 50704,
      "componentType": 5126,
      "count": 144,
      "max": [
        0.6846539974212646,
        0.9937779903411865
      ],
      "min": [
        0.4104920029640198,
        0.9413939714431763
      ],
      "type": "VEC2"
    },
    {
      "bufferView": 1,
      "byteOffset": 51856,
      "componentType": 5126,
      "count": 144,
      "max": [
        0.6846539974212646,
        0.9937779903411865
      ],
      "min": [
        0.4104920029640198,
        0.9413939714431763
      ],
      "type": "VEC2"
    },
    {
      "bufferView": 0,
      "byteOffset": 9792,
      "componentType": 5125,
      "count": 720,
      "type": "SCALAR"
    },
    {
      "bufferView": 2,
      "byteOffset": 39528,
      "componentType": 5126,
      "count": 614,
      "max": [
        1.5530872344970703,
        1.5797247886657715,
        0.7692160606384277
      ],
      "min": [
        -1.553087830543518,
        -0.9033842086791992,
        -0.46439313888549805
      ],
      "type": "VEC3"
    },
    {
      "bufferView": 2,
      "byteOffset": 46896,
      "componentType": 5126,
      "count": 614,
      "max": [
        1.0,
        0.906310498714447,
        0.906313955783844
      ],
      "min": [
        -1.0,
        -0.9063137769699097,
        -0.9063230752944946
      ],
      "type": "VEC3"
    },
    {
      "bufferView": 1,
      "byteOffset": 53008,
      "componentType": 5126,
      "count": 614,
      "max": [
        0.9293400049209595,
        0.997033953666687
      ],
      "min": [
        0.4104500114917755,
        0.8336570262908936
      ],
      "type": "VEC2"
    },
    {
      "bufferView": 1,
      "byteOffset": 57920,
      "componentType": 5126,
      "count": 614,
      "max": [
        0.9293400049209595,
        0.997033953666687
      ],
      "min": [
        0.4104500114917755,
        0.8336570262908936
      ],
      "type": "VEC2"
    },
    {
      "bufferView": 1,
      "byteOffset": 62832,
      "componentType": 5126,
      "count": 614,
      "max": [
        0.9293400049209595,
        0.997033953666687
      ],
      "min": [
        0.4104500114917755,
        0.8336570262908936
      ],
      "type": "VEC2"
    },
    {
      "bufferView": 1,
      "byteOffset": 67744,
      "componentType": 5126,
      "count": 614,
      "max": [
        0.9293400049209595,
        0.997033953666687
      ],
      "min": [
        0.4104500114917755,
        0.8336570262908936
      ],
      "type": "VEC2"
    },
    {
      "bufferView": 0,
      "byteOffset": 12672,
      "componentType": 5125,
      "count": 852,
      "type": "SCALAR"
    },
    {
      "bufferView": 2,
      "byteOffset": 54264,
      "componentType": 5126,
      "count": 173,
      "max": [
        1.6573195457458496,
        1.738229751586914,
        1.7175946235656738
      ],
      "min": [
        -0.8711576461791992,
        -1.6959114074707031,
        -1.7175750732421875
      ],
      "type": "VEC3"
    },
    {
      "bufferView": 2,
      "byteOffset": 56340,
      "componentType": 5126,
      "count": 173,
      "max": [
        0.8968821167945862,
        1.0,
        1.0
      ],
      "min": [
        -1.0,
        -1.0,
        -1.0
      ],
      "type": "VEC3"
    },
    {
      "bufferView": 3,
      "byteOffset": 1376,
      "componentType": 5126,
      "count": 173,
      "max": [
        0.9994974136352539,
        0.9997738003730774,
        1.0,
        1.0
      ],
      "min": [
        -0.9994973540306091,
        -0.9997737407684326,
        -0.99798583984375,
        -1.0
      ],
      "type": "VEC4"
    },
    {
      "bufferView": 1,
      "byteOffset": 72656,
      "componentType": 5126,
      "count": 173,
      "max": [
        1.0,
        0.9989519715309143
      ],
      "min": [
        0.0,
        0.27301496267318726
      ],
      "type": "VEC2"
    },
    {
      "bufferView": 1,
      "byteOffset": 74040,
      "componentType": 5126,
      "count": 173,
      "max": [
        1.0,
        0.9989519715309143
      ],
      "min": [
        0.0,
        0.27301496267318726
      ],
      "type": "VEC2"
    },
    {
      "bufferView": 1,
      "byteOffset": 75424,
      "componentType": 5126,
      "count": 173,
      "max": [
        1.0,
        0.9989519715309143
      ],
      "min": [
        0.0,
        0.27301496267318726
      ],
      "type": "VEC2"
    },
    {
      "bufferView": 1,
      "byteOffset": 76808,
      "componentType": 5126,
      "count": 173,
      "max": [
        1.0,
        0.9989519715309143
      ],
      "min": [
        0.0,
        0.27301496267318726
      ],
      "type": "VEC2"
    },
    {
      "bufferView": 1,
      "byteOffset": 78192,
      "componentType": 5126,
      "count": 173,
      "max": [
        1.0,
        0.9989519715309143
      ],
      "min": [
        0.0,
        0.27301496267318726
      ],
      "type": "VEC2"
    },
    {
      "bufferView": 0,
      "byteOffset": 16080,
      "componentType": 5125,
      "count": 564,
      "type": "SCALAR"
    },
    {
      "bufferView": 2,
      "byteOffset": 58416,
      "componentType": 5126,
      "count": 166,
      "max": [
        1.1307835578918457,
        2.0942811965942383,
        2.06941556930542
      ],
      "min": [
        -2.184030771255493,
        -2.043294906616211,
        -2.0694005489349365
      ],
      "type": "VEC3"
    },
    {
      "bufferView": 2,
      "byteOffset": 60408,
      "componentType": 5126,
      "count": 166,
      "max": [
        1.0,
        1.0,
        1.0
      ],
      "min": [
        -0.8968816995620728,
        -1.0,
        -1.0
      ],
      "type": "VEC3"
    },
    {
      "bufferView": 3,
      "byteOffset": 4144,
      "componentType": 5126,
      "count": 166,
      "max": [
        0.9994973540306091,
        0.9997738003730774,
        0.9997757077217102,
        1.0
      ],
      "min": [
        -0.9994974136352539,
        -0.9997736811637878,
        -1.0,
        -1.0
      ],
      "type": "VEC4"
    },
    {
      "bufferView": 1,
      "byteOffset": 79576,
      "componentType": 5126,
      "count": 166,
      "max": [
        1.0,
        0.9989519715309143
      ],
      "min": [
        0.0,
        0.27301496267318726
      ],
      "type": "VEC2"
    },
    {
      "bufferView": 1,
      "byteOffset": 80904,
      "componentType": 5126,
      "count": 166,
      "max": [
        1.0,
        0.9989519715309143
      ],
      "min": [
        0.0,
        0.27301496267318726
      ],
      "type": "VEC2"
    },
    {
      "bufferView": 1,
      "byteOffset": 82232,
      "componentType": 5126,
      "count": 166,
      "max": [
        1.0,
        0.9989519715309143
      ],
      "min": [
        0.0,
        0.27301496267318726
      ],
      "type": "VEC2"
    },
    {
      "bufferView": 1,
      "byteOffset": 83560,
      "componentType": 5126,
      "count": 166,
      "max": [
        1.0,
        0.9989519715309143
      ],
      "min": [
        0.0,
        0.27301496267318726
      ],
      "type": "VEC2"
    },
    {
      "bufferView": 1,
      "byteOffset": 84888,
      "componentType": 5126,
      "count": 166,
      "max": [
        1.0,
        0.9989519715309143
      ],
      "min": [
        0.0,
        0.27301496267318726
      ],
      "type": "VEC2"
    },
    {
      "bufferView": 0,
      "byteOffset": 18336,
      "componentType": 5125,
      "count": 564,
      "type": "SCALAR"
    },
    {
      "bufferView": 2,
      "byteOffset": 62400,
      "componentType": 5126,
      "count": 166,
      "max": [
        2.184023141860962,
        2.0942814350128174,
        2.0694174766540527
      ],
      "min": [
        -1.130791187286377,
        -2.043294668197632,
        -2.0693986415863037
      ],
      "type": "VEC3"
    },
    {
      "bufferView": 2,
      "byteOffset": 64392,
      "componentType": 5126,
      "count": 166,
      "max": [
        0.8968817591667175,
        1.0,
        1.0
      ],
      "min": [
        -1.0,
        -1.0,
        -1.0
      ],
      "type": "VEC3"
    },
    {
      "bufferView": 3,
      "byteOffset": 6800,
      "componentType": 5126,
      "count": 166,
      "max": [
        0.9994973540306091,
        0.9997738003730774,
        1.0,
        1.0
      ],
      "min": [
        -0.9994974136352539,
        -0.9997737407684326,
        -0.9979857802391052,
        -1.0
      ],
      "type": "VEC4"
    },
    {
      "bufferView": 1,
      "byteOffset": 86216,
      "componentType": 5126,
      "count": 166,
      "max": [
        1.0,
        0.9989519715309143
      ],
      "min": [
        0.0,
        0.27301496267318726
      ],
      "type": "VEC2"
    },
    {
      "bufferView": 1,
      "byteOffset": 87544,
      "componentType": 5126,
      "count": 166,
      "max": [
        1.0,
        0.9989519715309143
      ],
      "min": [
        0.0,
        0.27301496267318726
      ],
      "type": "VEC2"
    },
    {
      "bufferView": 1,
      "byteOffset": 88872,
      "componentType": 5126,
      "count": 166,
      "max": [
        1.0,
        0.9989519715309143
      ],
      "min": [
        0.0,
        0.27301496267318726
      ],
      "type": "VEC2"
    },
    {
      "bufferView": 1,
      "byteOffset": 90200,
      "componentType": 5126,
      "count": 166,
      "max": [
        1.0,
        0.9989519715309143
      ],
      "min": [
        0.0,
        0.27301496267318726
      ],
      "type": "VEC2"
    },
    {
      "bufferView": 1,
      "byteOffset": 91528,
      "componentType": 5126,
      "count": 166,
      "max": [
        1.0,
        0.9989519715309143
      ],
      "min": [
        0.0,
        0.27301496267318726
      ],
      "type": "VEC2"
    },
    {
      "bufferView": 0,
      "byteOffset": 20592,
      "componentType": 5125,
      "count": 564,
      "type": "SCALAR"
    },
    {
      "bufferView": 2,
      "byteOffset": 66384,
      "componentType": 5126,
      "count": 38,
      "max": [
        1.876710057258606,
        5.639441013336182,
        9.4506254196167
      ],
      "min": [
        -1.876710057258606,
        2.327122926712036,
        4.350625991821289
      ],
      "type": "VEC3"
    },
    {
      "bufferView": 2,
      "byteOffset": 66840,
      "componentType": 5126,
      "count": 38,
      "max": [
        0.9879124164581299,
        0.9882158041000366,
        0.5171267986297607
      ],
      "min": [
        -0.9879124760627747,
        -0.0003431597724556923,
        0.13001728057861328
      ],
      "type": "VEC3"
    },
    {
      "bufferView": 1,
      "byteOffset": 92856,
      "componentType": 5126,
      "count": 38,
      "max": [
        0.9966310262680054,
        0.2821769714355469
      ],
      "min": [
        0.6858529448509216,
        0.0074720000848174095
      ],
      "type": "VEC2"
    },
    {
      "bufferView": 1,
      "byteOffset": 93160,
      "componentType": 5126,
      "count": 38,
      "max": [
        0.9966310262680054,
        0.2821769714355469
      ],
      "min": [
        0.6858529448509216,
        0.0074720000848174095
      ],
      "type": "VEC2"
    },
    {
      "bufferView": 1,
      "byteOffset": 93464,
      "componentType": 5126,
      "count": 38,
      "max": [
        0.9966310262680054,
        0.2821769714355469
      ],
      "min": [
        0.6858529448509216,
        0.0074720000848174095
      ],
      "type": "VEC2"
    },
    {
      "bufferView": 1,
      "byteOffset": 93768,
      "componentType": 5126,
      "count": 38,
      "max": [
        0.9966310262680054,
        0.2821769714355469
      ],
      "min": [
        0.6858529448509216,
        0.0074720000848174095
      ],
      "type": "VEC2"
    },
    {
      "bufferView": 0,
      "byteOffset": 22848,
      "componentType": 5125,
      "count": 138,
      "type": "SCALAR"
    },
    {
      "bufferView": 2,
      "byteOffset": 67296,
      "componentType": 5126,
      "count": 444,
      "max": [
        5.060083866119385,
        5.639441013336182,
        9.574432373046875
      ],
      "min": [
        -5.060083866119385,
        1.02149498462677,
        -3.480485677719116
      ],
      "type": "VEC3"
    },
    {
      "bufferView": 2,
      "byteOffset": 72624,
      "componentType": 5126,
      "count": 444,
      "max": [
        0.9836052060127258,
        1.0,
        0.8660262227058411
      ],
      "min": [
        -0.9836052060127258,
        -1.0,
        -0.980576753616333
      ],
      "type": "VEC3"
    },
    {
      "bufferView": 1,
      "byteOffset": 94072,
      "componentType": 5126,
      "count": 444,
      "max": [
        0.9961429238319397,
        0.9963610172271729
      ],
      "min": [
        0.005032000131905079,
        0.2989270091056824
      ],
      "type": "VEC2"
    },
    {
      "bufferView": 1,
      "byteOffset": 97624,
      "componentType": 5126,
      "count": 444,
      "max": [
        0.9961429238319397,
        0.9963610172271729
      ],
      "min": [
        0.005032000131905079,
        0.2989270091056824
      ],
      "type": "VEC2"
    },
    {
      "bufferView": 1,
      "byteOffset": 101176,
      "componentType": 5126,
      "count": 444,
      "max": [
        0.9961429238319397,
        0.9963610172271729
      ],
      "min": [
        0.005032000131905079,
        0.2989270091056824
      ],
      "type": "VEC2"
    },
    {
      "bufferView": 1,
      "byteOffset": 104728,
      "componentType": 5126,
      "count": 444,
      "max": [
        0.9961429238319397,
        0.9963610172271729
      ],
      "min": [
        0.005032000131905079,
        0.2989270091056824
      ],
      "type": "VEC2"
    },
    {
      "bufferView": 0,
      "byteOffset": 23400,
      "componentType": 5125,
      "count": 954,
      "type": "SCALAR"
    },
    {
      "bufferView": 2,
      "byteOffset": 77952,
      "componentType": 5126,
      "count": 124,
      "max": [
        3.406928062438965,
        4.231511116027832,
        6.040855407714844
      ],
      "min": [
        -3.406928062438965,
        2.3396999835968018,
        4.837564945220947
      ],
      "type": "VEC3"
    },
    {
      "bufferView": 2,
      "byteOffset": 79440,
      "componentType": 5126,
      "count": 124,
      "max": [
        1.0,
        0.8186467885971069,
        0.978716254234314
      ],
      "min": [
        -1.0,
        -0.8130183219909668,
        -0.9756681323051453
      ],
      "type": "VEC3"
    },
    {
      "bufferView": 1,
      "byteOffset": 108280,
      "componentType": 5126,
      "count": 124,
      "max": [
        0.7932919263839722,
        0.9947969913482666
      ],
      "min": [
        0.1846809834241867,
        0.00445199990645051
      ],
      "type": "VEC2"
    },
    {
      "bufferView": 1,
      "byteOffset": 109272,
      "componentType": 5126,
      "count": 124,
      "max": [
        0.7932919263839722,
        0.9947969913482666
      ],
      "min": [
        0.1846809834241867,
        0.00445199990645051
      ],
      "type": "VEC2"
    },
    {
      "bufferView": 1,
      "byteOffset": 110264,
      "componentType": 5126,
      "count": 124,
      "max": [
        0.7932919263839722,
        0.9947969913482666
      ],
      "min": [
        0.1846809834241867,
        0.00445199990645051
      ],
      "type": "VEC2"
    },
    {
      "bufferView": 1,
      "byteOffset": 111256,
      "componentType": 5126,
      "count": 124,
      "max": [
        0.7932919263839722,
        0.9947969913482666
      ],
      "min": [
        0.1846809834241867,
        0.00445199990645051
      ],
      "type": "VEC2"
    },
    {
      "bufferView": 0,
      "byteOffset": 27216,
      "componentType": 5125,
      "count": 402,
      "type": "SCALAR"
    },
    {
      "bufferView": 2,
      "byteOffset": 80928,
      "componentType": 5126,
      "count": 187,
      "max": [
        2.654911994934082,
        7.286180019378662,
        2.4368209838867188
      ],
      "min": [
        -2.654911994934082,
        1.2359180450439453,
        -3.789699077606201
      ],
      "type": "VEC3"
    },
    {
      "bufferView": 2,
      "byteOffset": 83172,
      "componentType": 5126,
      "count": 187,
      "max": [
        0.9880774617195129,
        0.9983730912208557,
        0.9999997019767761
      ],
      "min": [
        -0.9880775809288025,
        -0.9931063652038574,
        -0.9999997615814209
      ],
      "type": "VEC3"
    },
    {
      "bufferView": 1,
      "byteOffset": 112248,
      "componentType": 5126,
      "count": 187,
      "max": [
        0.7497329711914063,
        0.7111939787864685
      ],
      "min": [
        0.0033489998895674944,
        0.3650580048561096
      ],
      "type": "VEC2"
    },
    {
      "bufferView": 1,
      "byteOffset": 113744,
      "componentType": 5126,
      "count": 187,
      "max": [
        0.7497329711914063,
        0.7111939787864685
      ],
      "min": [
        0.0033489998895674944,
        0.3650580048561096
      ],
      "type": "VEC2"
    },
    {
      "bufferView": 1,
      "byteOffset": 115240,
      "componentType": 5126,
      "count": 187,
      "max": [
        0.7497329711914063,
        0.7111939787864685
      ],
      "min": [
        0.0033489998895674944,
        0.3650580048561096
      ],
      "type": "VEC2"
    },
    {
      "bufferView": 1,
      "byteOffset": 116736,
      "componentType": 5126,
      "count": 187,
      "max": [
        0.7497329711914063,
        0.7111939787864685
      ],
      "min": [
        0.0033489998895674944,
        0.3650580048561096
      ],
      "type": "VEC2"
    },
    {
      "bufferView": 0,
      "byteOffset": 28824,
      "componentType": 5125,
      "count": 870,
      "type": "SCALAR"
    },
    {
      "bufferView": 2,
      "byteOffset": 85416,
      "componentType": 5126,
      "count": 84,
      "max": [
        4.544372081756592,
        6.883023738861084,
        -6.792086124420166
      ],
      "min": [
        -4.544372081756592,
        5.738518238067627,
        -7.358824729919434
      ],
      "type": "VEC3"
    },
    {
      "bufferView": 2,
      "byteOffset": 86424,
      "componentType": 5126,
      "count": 84,
      "max": [
        0.17051538825035095,
        0.41582798957824707,
        -0.893315315246582
      ],
      "min": [
        -0.17051538825035095,
        0.41579684615135193,
        -0.8933300971984863
      ],
      "type": "VEC3"
    },
    {
      "bufferView": 3,
      "byteOffset": 9456,
      "componentType": 5126,
      "count": 84,
      "max": [
        0.9853437542915344,
        0.0674867108464241,
        -0.15666410326957703,
        1.0
      ],
      "min": [
        -0.9853437542915344,
        0.0674828365445137,
        -0.15666767954826355,
        -1.0
      ],
      "type": "VEC4"
    },
    {
      "bufferView": 1,
      "byteOffset": 118232,
      "componentType": 5126,
      "count": 84,
      "max": [
        0.5542349815368652,
        0.72770094871521
      ],
      "min": [
        0.43994295597076416,
        0.6134089231491089
      ],
      "type": "VEC2"
    },
    {
      "bufferView": 1,
      "byteOffset": 118904,
      "componentType": 5126,
      "count": 84,
      "max": [
        0.5542349815368652,
        0.72770094871521
      ],
      "min": [
        0.43994295597076416,
        0.6134089231491089
      ],
      "type": "VEC2"
    },
    {
      "bufferView": 1,
      "byteOffset": 119576,
      "componentType": 5126,
      "count": 84,
      "max": [
        0.5542349815368652,
        0.72770094871521
      ],
      "min": [
        0.43994295597076416,
        0.6134089231491089
      ],
      "type": "VEC2"
    },
    {
      "bufferView": 1,
      "byteOffset": 120248,
      "componentType": 5126,
      "count": 84,
      "max": [
        0.5542349815368652,
        0.72770094871521
      ],
      "min": [
        0.43994295597076416,
        0.6134089231491089
      ],
      "type": "VEC2"
    },
    {
      "bufferView": 1,
      "byteOffset": 120920,
      "componentType": 5126,
      "count": 84,
      "max": [
        3.7958459854125977,
        5.552209854125977
      ],
      "min": [
        -1989.96923828125,
        -2005.9693603515625
      ],
      "type": "VEC2"
    },
    {
      "bufferView": 0,
      "byteOffset": 32304,
      "componentType": 5125,
      "count": 84,
      "type": "SCALAR"
    },
    {
      "bufferView": 2,
      "byteOffset": 87432,
      "componentType": 5126,
      "count": 436,
      "max": [
        4.9356231689453125,
        7.1337409019470215,
        -0.785847008228302
      ],
      "min": [
        -4.9356231689453125,
        1.1964080333709717,
        -7.358824729919434
      ],
      "type": "VEC3"
    },
    {
      "bufferView": 2,
      "byteOffset": 92664,
      "componentType": 5126,
      "count": 436,
      "max": [
        0.9973049163818359,
        0.9155290126800537,
        0.9885287284851074
      ],
      "min": [
        -0.9973049759864807,
        -0.9433058500289917,
        -0.988250195980072
      ],
      "type": "VEC3"
    },
    {
      "bufferView": 1,
      "byteOffset": 121592,
      "componentType": 5126,
      "count": 436,
      "max": [
        0.6014509797096252,
        0.6622529625892639
      ],
      "min": [
        0.08928699791431427,
        0.28906700015068054
      ],
      "type": "VEC2"
    },
    {
      "bufferView": 1,
      "byteOffset": 125080,
      "componentType": 5126,
      "count": 436,
      "max": [
        0.6014509797096252,
        0.6622529625892639
      ],
      "min": [
        0.08928699791431427,
        0.28906700015068054
      ],
      "type": "VEC2"
    },
    {
      "bufferView": 1,
      "byteOffset": 128568,
      "componentType": 5126,
      "count": 436,
      "max": [
        0.6014509797096252,
        0.6622529625892639
      ],
      "min": [
        0.08928699791431427,
        0.28906700015068054
      ],
      "type": "VEC2"
    },
    {
      "bufferView": 1,
      "byteOffset": 132056,
      "componentType": 5126,
      "count": 436,
      "max": [
        0.6014509797096252,
        0.6622529625892639
      ],
      "min": [
        0.08928699791431427,
        0.28906700015068054
      ],
      "type": "VEC2"
    },
    {
      "bufferView": 1,
      "byteOffset": 135544,
      "componentType": 5126,
      "count": 436,
      "max": [
        6980829.0,
        11.44350814819336
      ],
      "min": [
        -2037.9688720703125,
        -1893.9744873046875
      ],
      "type": "VEC2"
    },
    {
      "bufferView": 0,
      "byteOffset": 32640,
      "componentType": 5125,
      "count": 1620,
      "type": "SCALAR"
    },
    {
      "bufferView": 2,
      "byteOffset": 97896,
      "componentType": 5126,
      "count": 12,
      "max": [
        0.2310049831867218,
        5.543667316436768,
        4.547760486602783
      ],
      "min": [
        -0.2310049831867218,
        4.369866371154785,
        2.7509350776672363
      ],
      "type": "VEC3"
    },
    {
      "bufferView": 2,
      "byteOffset": 98040,
      "componentType": 5126,
      "count": 12,
      "max": [
        1.0,
        0.7740517258644104,
        0.3882703483104706
      ],
      "min": [
        -1.0,
        -0.7737460136413574,
        -0.3886018693447113
      ],
      "type": "VEC3"
    },
    {
      "bufferView": 1,
      "byteOffset": 139032,
      "componentType": 5126,
      "count": 12,
      "max": [
        0.8392649292945862,
        0.48167598247528076
      ],
      "min": [
        0.7657409906387329,
        0.4690049886703491
      ],
      "type": "VEC2"
    },
    {
      "bufferView": 1,
      "byteOffset": 139128,
      "componentType": 5126,
      "count": 12,
      "max": [
        0.8392649292945862,
        0.48167598247528076
      ],
      "min": [
        0.7657409906387329,
        0.4690049886703491
      ],
      "type": "VEC2"
    },
    {
      "bufferView": 1,
      "byteOffset": 139224,
      "componentType": 5126,
      "count": 12,
      "max": [
        0.8392649292945862,
        0.48167598247528076
      ],
      "min": [
        0.7657409906387329,
        0.4690049886703491
      ],
      "type": "VEC2"
    },
    {
      "bufferView": 1,
      "byteOffset": 139320,
      "componentType": 5126,
      "count": 12,
      "max": [
        0.8392649292945862,
        0.48167598247528076
      ],
      "min": [
        0.7657409906387329,
        0.4690049886703491
      ],
      "type": "VEC2"
    },
    {
      "bufferView": 0,
      "byteOffset": 39120,
      "componentType": 5125,
      "count": 36,
      "type": "SCALAR"
    },
    {
      "bufferView": 2,
      "byteOffset": 98184,
      "componentType": 5126,
      "count": 16,
      "max": [
        5.204570770263672,
        2.3212649822235107,
        -3.480485677719116
      ],
      "min": [
        -5.204570770263672,
        1.8831390142440796,
        -3.8599138259887695
      ],
      "type": "VEC3"
    },
    {
      "bufferView": 2,
      "byteOffset": 98376,
      "componentType": 5126,
      "count": 16,
      "max": [
        0.0,
        0.8660253882408142,
        0.8660261034965515
      ],
      "min": [
        0.0,
        -0.8660262227058411,
        -0.8660261631011963
      ],
      "type": "VEC3"
    },
    {
      "bufferView": 1,
      "byteOffset": 139416,
      "componentType": 5126,
      "count": 16,
      "max": [
        0.23503300547599792,
        0.6787989735603333
      ],
      "min": [
        0.16667398810386658,
        0.6554369926452637
      ],
      "type": "VEC2"
    },
    {
      "bufferView": 1,
      "byteOffset": 139544,
      "componentType": 5126,
      "count": 16,
      "max": [
        0.23503300547599792,
        0.6787989735603333
      ],
      "min": [
        0.16667398810386658,
        0.6554369926452637
      ],
      "type": "VEC2"
    },
    {
      "bufferView": 1,
      "byteOffset": 139672,
      "componentType": 5126,
      "count": 16,
      "max": [
        0.23503300547599792,
        0.6787989735603333
      ],
      "min": [
        0.16667398810386658,
        0.6554369926452637
      ],
      "type": "VEC2"
    },
    {
      "bufferView": 1,
      "byteOffset": 139800,
      "componentType": 5126,
      "count": 16,
      "max": [
        0.23503300547599792,
        0.6787989735603333
      ],
      "min": [
        0.16667398810386658,
        0.6554369926452637
      ],
      "type": "VEC2"
    },
    {
      "bufferView": 0,
      "byteOffset": 39264,
      "componentType": 5125,
      "count": 36,
      "type": "SCALAR"
    },
    {
      "bufferView": 2,
      "byteOffset": 98568,
      "componentType": 5126,
      "count": 26,
      "max": [
        1.3296699523925781,
        5.1097798347473145,
        -2.2871110439300537
      ],
      "min": [
        -1.3296699523925781,
        4.109535217285156,
        -2.5324840545654297
      ],
      "type": "VEC3"
    },
    {
      "bufferView": 2,
      "byteOffset": 98880,
      "componentType": 5126,
      "count": 26,
      "max": [
        0.37366822361946106,
        0.43111497163772583,
        0.9991321563720703
      ],
      "min": [
        -0.3736637532711029,
        -0.07538282871246338,
        0.8856101632118225
      ],
      "type": "VEC3"
    },
    {
      "bufferView": 1,
      "byteOffset": 139928,
      "componentType": 5126,
      "count": 26,
      "max": [
        0.9971789121627808,
        0.8725489377975464
      ],
      "min": [
        0.9399020075798035,
        0.8152710199356079
      ],
      "type": "VEC2"
    },
    {
      "bufferView": 1,
      "byteOffset": 140136,
      "componentType": 5126,
      "count": 26,
      "max": [
        0.9971789121627808,
        0.8725489377975464
      ],
      "min": [
        0.9399020075798035,
        0.8152710199356079
      ],
      "type": "VEC2"
    },
    {
      "bufferView": 1,
      "byteOffset": 140344,
      "componentType": 5126,
      "count": 26,
      "max": [
        0.9971789121627808,
        0.8725489377975464
      ],
      "min": [
        0.9399020075798035,
        0.8152710199356079
      ],
      "type": "VEC2"
    },
    {
      "bufferView": 1,
      "byteOffset": 140552,
      "componentType": 5126,
      "count": 26,
      "max": [
        0.9971789121627808,
        0.8725489377975464
      ],
      "min": [
        0.9399020075798035,
        0.8152710199356079
      ],
      "type": "VEC2"
    },
    {
      "bufferView": 0,
      "byteOffset": 39408,
      "componentType": 5125,
      "count": 72,
      "type": "SCALAR"
    },
    {
      "bufferView": 2,
      "byteOffset": 99192,
      "componentType": 5126,
      "count": 173,
      "max": [
        0.8711562156677246,
        1.7382293939590454,
        1.7175922393798828
      ],
      "min": [
        -1.6573209762573242,
        -1.6959117650985718,
        -1.7175774574279785
      ],
      "type": "VEC3"
    },
    {
      "bufferView": 2,
      "byteOffset": 101268,
      "componentType": 5126,
      "count": 173,
      "max": [
        1.0,
        1.0,
        1.0
      ],
      "min": [
        -0.8968821167945862,
        -1.0,
        -1.0
      ],
      "type": "VEC3"
    },
    {
      "bufferView": 3,
      "byteOffset": 10800,
      "componentType": 5126,
      "count": 173,
      "max": [
        0.9994973540306091,
        0.9997738003730774,
        0.9997756481170654,
        1.0
      ],
      "min": [
        -0.9994974136352539,
        -0.9997738003730774,
        -1.0,
        -1.0
      ],
      "type": "VEC4"
    },
    {
      "bufferView": 1,
      "byteOffset": 140760,
      "componentType": 5126,
      "count": 173,
      "max": [
        1.0,
        0.9989519715309143
      ],
      "min": [
        0.0,
        0.27301496267318726
      ],
      "type": "VEC2"
    },
    {
      "bufferView": 1,
      "byteOffset": 142144,
      "componentType": 5126,
      "count": 173,
      "max": [
        1.0,
        0.9989519715309143
      ],
      "min": [
        0.0,
        0.27301496267318726
      ],
      "type": "VEC2"
    },
    {
      "bufferView": 1,
      "byteOffset": 143528,
      "componentType": 5126,
      "count": 173,
      "max": [
        1.0,
        0.9989519715309143
      ],
      "min": [
        0.0,
        0.27301496267318726
      ],
      "type": "VEC2"
    },
    {
      "bufferView": 1,
      "byteOffset": 144912,
      "componentType": 5126,
      "count": 173,
      "max": [
        1.0,
        0.9989519715309143
      ],
      "min": [
        0.0,
        0.27301496267318726
      ],
      "type": "VEC2"
    },
    {
      "bufferView": 1,
      "byteOffset": 146296,
      "componentType": 5126,
      "count": 173,
      "max": [
        1.0,
        0.9989519715309143
      ],
      "min": [
        0.0,
        0.27301496267318726
      ],
      "type": "VEC2"
    },
    {
      "bufferView": 0,
      "byteOffset": 39696,
      "componentType": 5125,
      "count": 564,
      "type": "SCALAR"
    }
  ],
  "asset": {
    "extras": {
      "author": "amogusstrikesback2 (https://sketchfab.com/amogusstrikesback2)",
      "license": "CC-BY-4.0 (http://creativecommons.org/licenses/by/4.0/)",
      "source": "https://sketchfab.com/3d-models/standard-kart-2e0996e9b43e4a9385c4e0ee64cbb169",
      "title": "standard kart"
    },
    "generator": "Sketchfab-16.72.0",
    "version": "2.0"
  },
  "bufferViews": [
    {
      "buffer": 0,
      "byteLength": 41952,
      "name": "floatBufferViews",
      "target": 34963
    },
    {
      "buffer": 0,
      "byteLength": 147680,
      "byteOffset": 41952,
      "byteStride": 8,
      "name": "floatBufferViews",
      "target": 34962
    },
    {
      "buffer": 0,
      "byteLength": 103344,
      "byteOffset": 189632,
      "byteStride": 12,
      "name": "floatBufferViews",
      "target": 34962
    },
    {
      "buffer": 0,
      "byteLength": 13568,
      "byteOffset": 292976,
      "byteStride": 16,
      "name": "floatBufferViews",
      "target": 34962
    }
  ],
  "buffers": [
    {
      "byteLength": 306544,
      "uri": "scene.bin"
    }
  ],
  "images": [
    {
      "uri": "textures/material_2.029_baseColor.png"
    },
    {
      "uri": "textures/material_1.032_baseColor.png"
    },
    {
      "uri": "textures/material_3.026_baseColor.png"
    },
    {
      "uri": "textures/material_4.025_baseColor.png"
    },
    {
      "uri": "textures/material_4.025_normal.png"
    }
  ],
  "materials": [
    {
      "doubleSided": true,
      "name": "material_2.029",
      "pbrMetallicRoughness": {
        "baseColorTexture": {
          "index": 0
        },
        "metallicFactor": 0.0,
        "roughnessFactor": 0.8211145618000169
      }
    },
    {
      "doubleSided": true,
      "name": "material_1.032",
      "pbrMetallicRoughness": {
        "baseColorTexture": {
          "index": 1
        },
        "metallicFactor": 0.0,
        "roughnessFactor": 0.8211145618000169
      }
    },
    {
      "doubleSided": true,
      "name": "material_3.026",
      "pbrMetallicRoughness": {
        "baseColorTexture": {
          "index": 2
        },
        "metallicFactor": 0.0,
        "roughnessFactor": 0.8211145618000169
      }
    },
    {
      "doubleSided": true,
      "name": "material_4.025",
      "normalTexture": {
        "index": 4
      },
      "pbrMetallicRoughness": {
        "baseColorTexture": {
          "index": 3
        },
        "metallicFactor": 0.0,
        "roughnessFactor": 0.8211145618000169
      }
    }
  ],
  "meshes": [
    {
      "name": "normal_kart_root.body1_material_2.029_0",
      "primitives": [
        {
          "attributes": {
            "NORMAL": 1,
            "POSITION": 0,
            "TEXCOORD_0": 2,
            "TEXCOORD_1": 3,
            "TEXCOORD_2": 4,
            "TEXCOORD_3": 5
          },
          "indices": 6,
          "material": 0,
          "mode": 4
        }
      ]
    },
    {
      "name": "normal_kart_root.body1_material_1.032_0",
      "primitives": [
        {
          "attributes": {
            "NORMAL": 8,
            "POSITION": 7,
            "TEXCOORD_0": 9,
            "TEXCOORD_1": 10,
            "TEXCOORD_2": 11,
            "TEXCOORD_3": 12
          },
          "indices": 13,
          "material": 1,
          "mode": 4
        }
      ]
    },
    {
      "name": "normal_kart_root.polymsh_detached3_material_3.026_0",
      "primitives": [
        {
          "attributes": {
            "NORMAL": 15,
            "POSITION": 14,
            "TEXCOORD_0": 16
          },
          "indices": 17,
          "material": 2,
          "mode": 4
        }
      ]
    },
    {
      "name": "normal_kart_root.polymsh_detached1_material_4.025_0",
      "primitives": [
        {
          "attributes": {
            "NORMAL": 19,
            "POSITION": 18,
            "TANGENT": 20,
            "TEXCOORD_0": 21,
            "TEXCOORD_1": 22,
            "TEXCOORD_2": 23,
            "TEXCOORD_3": 24,
            "TEXCOORD_4": 25
          },
          "indices": 26,
          "material": 3,
          "mode": 4
        }
      ]
    },
    {
      "name": "normal_kart_root.torus_material_1.032_0",
      "primitives": [
        {
          "attributes": {
            "NORMAL": 28,
            "POSITION": 27,
            "TEXCOORD_0": 29,
            "TEXCOORD_1": 30,
            "TEXCOORD_2": 31,
            "TEXCOORD_3": 32
          },
          "indices": 33,
          "material": 1,
          "mode": 4
        }
      ]
    },
    {
      "name": "normal_kart_root.polymsh21_material_1.032_0",
      "primitives": [
        {
          "attributes": {
            "NORMAL": 35,
            "POSITION": 34,
            "TEXCOORD_0": 36,
            "TEXCOORD_1": 37,
            "TEXCOORD_2": 38,
            "TEXCOORD_3": 39
          },
          "indices": 40,
          "material": 1,
          "mode": 4
        }
      ]
    },
    {
      "name": "normal_kart_root.polymsh13_material_4.025_0",
      "primitives": [
        {
          "attributes": {
            "NORMAL": 42,
            "POSITION": 41,
            "TANGENT": 43,
            "TEXCOORD_0": 44,
            "TEXCOORD_1": 45,
            "TEXCOORD_2": 46,
            "TEXCOORD_3": 47,
            "TEXCOORD_4": 48
          },
          "indices": 49,
          "material": 3,
          "mode": 4
        }
      ]
    },
    {
      "name": "normal_kart_root.polymsh_detached9_material_4.025_0",
      "primitives": [
        {
          "attributes": {
            "NORMAL": 51,
            "POSITION": 50,
            "TANGENT": 52,
            "TEXCOORD_0": 53,
            "TEXCOORD_1": 54,
            "TEXCOORD_2": 55,
            "TEXCOORD_3": 56,
            "TEXCOORD_4": 57
          },
          "indices": 58,
          "material": 3,
          "mode": 4
        }
      ]
    },
    {
      "name": "normal_kart_root.polymsh_detached10_material_4.025_0",
      "primitives": [
        {
          "attributes": {
            "NORMAL": 60,
            "POSITION": 59,
            "TANGENT": 61,
            "TEXCOORD_0": 62,
            "TEXCOORD_1": 63,
            "TEXCOORD_2": 64,
            "TEXCOORD_3": 65,
            "TEXCOORD_4": 66
          },
          "indices": 67,
          "material": 3,
          "mode": 4
        }
      ]
    },
    {
      "name": "normal_kart_root.polymsh_material_2.029_0",
      "primitives": [
        {
          "attributes": {
            "NORMAL": 69,
            "POSITION": 68,
            "TEXCOORD_0": 70,
            "TEXCOORD_1": 71,
            "TEXCOORD_2": 72,
            "TEXCOORD_3": 73
          },
          "indices": 74,
          "material": 0,
          "mode": 4
        }
      ]
    },
    {
      "name": "normal_kart_root.polymsh_material_1.032_0",
      "primitives": [
        {
          "attributes": {
            "NORMAL": 76,
            "POSITION": 75,
            "TEXCOORD_0": 77,
            "TEXCOORD_1": 78,
            "TEXCOORD_2": 79,
            "TEXCOORD_3": 80
          },
          "indices": 81,
          "material": 1,
          "mode": 4
        }
      ]
    },
    {
      "name": "normal_kart_root.polymsh54_material_1.032_0",
      "primitives": [
        {
          "attributes": {
            "NORMAL": 83,
            "POSITION": 82,
            "TEXCOORD_0": 84,
            "TEXCOORD_1": 85,
            "TEXCOORD_2": 86,
            "TEXCOORD_3": 87
          },
          "indices": 88,
          "material": 1,
          "mode": 4
        }
      ]
    },
    {
      "name": "normal_kart_root.polymsh53_material_1.032_0",
      "primitives": [
        {
          "attributes": {
            "NORMAL": 90,
            "POSITION": 89,
            "TEXCOORD_0": 91,
            "TEXCOORD_1": 92,
            "TEXCOORD_2": 93,
            "TEXCOORD_3": 94
          },
          "indices": 95,
          "material": 1,
          "mode": 4
        }
      ]
    },
    {
      "name": "normal_kart_root.polymsh55_material_4.025_0",
      "primitives": [
        {
          "attributes": {
            "NORMAL": 97,
            "POSITION": 96,
            "TANGENT": 98,
            "TEXCOORD_0": 99,
            "TEXCOORD_1": 100,
            "TEXCOORD_2": 101,
            "TEXCOORD_3": 102,
            "TEXCOORD_4": 103
          },
          "indices": 104,
          "material": 3,
          "mode": 4
        }
      ]
    },
    {
      "name": "normal_kart_root.polymsh55_material_1.032_0",
      "primitives": [
        {
          "attributes": {
            "NORMAL": 106,
            "POSITION": 105,
            "TEXCOORD_0": 107,
            "TEXCOORD_1": 108,
            "TEXCOORD_2": 109,
            "TEXCOORD_3": 110,
            "TEXCOORD_4": 111
          },
          "indices": 112,
          "material": 1,
          "mode": 4
        }
      ]
    },
    {
      "name": "normal_kart_root.cylinder16_material_1.032_0",
      "primitives": [
        {
          "attributes": {
            "NORMAL": 114,
            "POSITION": 113,
            "TEXCOORD_0": 115,
            "TEXCOORD_1": 116,
            "TEXCOORD_2": 117,
            "TEXCOORD_3": 118
          },
          "indices": 119,
          "material": 1,
          "mode": 4
        }
      ]
    },
    {
      "name": "normal_kart_root.polymsh_detached8_material_1.032_0",
      "primitives": [
        {
          "attributes": {
            "NORMAL": 121,
            "POSITION": 120,
            "TEXCOORD_0": 122,
            "TEXCOORD_1": 123,
            "TEXCOORD_2": 124,
            "TEXCOORD_3": 125
          },
          "indices": 126,
          "material": 1,
          "mode": 4
        }
      ]
    },
    {
      "name": "normal_kart_root.sphere_material_1.032_0",
      "primitives": [
        {
          "attributes": {
            "NORMAL": 128,
            "POSITION": 127,
            "TEXCOORD_0": 129,
            "TEXCOORD_1": 130,
            "TEXCOORD_2": 131,
            "TEXCOORD_3": 132
          },
          "indices": 133,
          "material": 1,
          "mode": 4
        }
      ]
    },
    {
      "name": "normal_kart_root.polymsh_detached_material_4.025_0",
      "primitives": [
        {
          "attributes": {
            "NORMAL": 135,
            "POSITION": 134,
            "TANGENT": 136,
            "TEXCOORD_0": 137,
            "TEXCOORD_1": 138,
            "TEXCOORD_2": 139,
            "TEXCOORD_3": 140,
            "TEXCOORD_4": 141
          },
          "indices": 142,
          "material": 3,
          "mode": 4
        }
      ]
    }
  ],
  "nodes": [
    {
      "children": [
        1
      ],
      "matrix": [
        1.0,
        0.0,
        0.0,
        0.0,
        0.0,
        2.220446049250313e-16,
        -1.0,
        0.0,
        0.0,
        1.0,
        2.220446049250313e-16,
        0.0,
        0.0,
        0.0,
        0.0,
        1.0
      ],
      "name": "Sketchfab_model"
    },
    {
      "children": [
        2
      ],
      "matrix": [
        0.009999999776482582,
        0.0,
        0.0,
        0.0,
        0.0,
        0.0,
        0.009999999776482582,
        0.0,
        0.0,
        -0.009999999776482582,
        0.0,
        0.0,
        0.0,
        0.0,
        0.0,
        1.0
      ],
      "name": "agpdxkart.fbx"
    },
    {
      "children": [
        3,
        6,
        8,
        10,
        14,
        16,
        18,
        20,
        23,
        25,
        27,
        30,
        32,
        34,
        36
      ],
      "name": "RootNode"
    },
    {
      "children": [
        4,
        5
      ],
      "matrix": [
        100.0,
        0.0,
        0.0,
        0.0,
        0.0,
        99.99998724200307,
        0.05051335687136853,
        0.0,
        0.0,
        -0.05051335687136853,
        99.99998724200307,
        0.0,
        0.0,
        0.0,
        0.0,
        1.0
      ],
      "name": "normal_kart_root.body1"
    },
    {
      "mesh": 0,
      "name": "normal_kart_root.body1_material_2.029_0"
    },
    {
      "mesh": 1,
      "name": "normal_kart_root.body1_material_1.032_0"
    },
    {
      "children": [
        7
      ],
      "matrix": [
        100.0,
        0.0,
        0.0,
        0.0,
        0.0,
        99.99998724200307,
        0.05051335687136853,
        0.0,
        0.0,
        -0.05051335687136853,
        99.99998724200307,
        0.0,
        0.0,
        0.0,
        0.0,
        1.0
      ],
      "name": "normal_kart_root.polymsh_detached3"
    },
    {
      "mesh": 2,
      "name": "normal_kart_root.polymsh_detached3_material_3.026_0"
    },
    {
      "children": [
        9
      ],
      "matrix": [
        100.0,
        0.0,
        0.0,
        0.0,
        0.0,
        99.99998724200307,
        0.05051335687136853,
        0.0,
        0.0,
        -0.05051335687136853,
        99.99998724200307,
        0.0,
        0.0,
        0.0,
        0.0,
        1.0
      ],
      "name": "normal_kart_root.polymsh_detached1"
    },
    {
      "mesh": 3,
      "name": "normal_kart_root.polymsh_detached1_material_4.025_0"
    },
    {
      "children": [
        11,
        12
      ],
      "matrix": [
        100.0,
        0.0,
        0.0,
        0.0,
        0.0,
        99.99998724200307,
        0.05051335687136853,
        0.0,
        0.0,
        -0.05051335687136853,
        99.99998724200307,
        0.0,
        4.553132839646423e-06,
        -2.3513312339782715,
        0.6561095118522644,
        1.0
      ],
      "name": "normal_kart_root.torus"
    },
    {
      "mesh": 4,
      "name": "normal_kart_root.torus_material_1.032_0"
    },
    {
      "children": [
        13
      ],
      "matrix": [
        1.0,
        0.0,
        0.0,
        0.0,
        0.0,
        0.9999999999999929,
        1.1920928955067284e-07,
        0.0,
        0.0,
        -1.1920928955067284e-07,
        0.9999999999999929,
        0.0,
        -4.553131915940867e-08,
        5.033604145050049,
        3.333542585372925,
        1.0
      ],
      "name": "normal_kart_root.polymsh21"
    },
    {
      "mesh": 5,
      "name": "normal_kart_root.polymsh21_material_1.032_0"
    },
    {
      "children": [
        15
      ],
      "matrix": [
        100.0,
        0.0,
        0.0,
        0.0,
        0.0,
        99.99998724200307,
        0.05051335687136853,
        0.0,
        0.0,
        -0.05051335687136853,
        99.99998724200307,
        0.0,
        -545.3165283203125,
        169.42367553710938,
        485.5796813964844,
        1.0
      ],
      "name": "normal_kart_root.polymsh13"
    },
    {
      "mesh": 6,
      "name": "normal_kart_root.polymsh13_material_4.025_0"
    },
    {
      "children": [
        17
      ],
      "matrix": [
        100.0,
        0.0,
        0.0,
        0.0,
        0.0,
        99.99998724200307,
        0.05051335687136853,
        0.0,
        0.0,
        -0.05051335687136853,
        99.99998724200307,
        0.0,
        573.1194458007813,
        207.9600830078125,
        -366.7957458496094,
        1.0
      ],
      "name": "normal_kart_root.polymsh_detached9"
    },
    {
      "mesh": 7,
      "name": "normal_kart_root.polymsh_detached9_material_4.025_0"
    },
    {
      "children": [
        19
      ],
      "matrix": [
        100.0,
        0.0,
        0.0,
        0.0,
        0.0,
        99.99998724200307,
        0.05051335687136853,
        0.0,
        0.0,
        -0.05051335687136853,
        99.99998724200307,
        0.0,
        -573.1187133789063,
        207.96005249023438,
        -366.79595947265625,
        1.0
      ],
      "name": "normal_kart_root.polymsh_detached10"
    },
    {
      "mesh": 8,
      "name": "normal_kart_root.polymsh_detached10_material_4.025_0"
    },
    {
      "children": [
        21,
        22
      ],
      "matrix": [
        100.0,
        0.0,
        0.0,
        0.0,
        0.0,
        99.99998724200307,
        0.05051335687136853,
        0.0,
        0.0,
        -0.05051335687136853,
        99.99998724200307,
        0.0,
        0.0,
        0.0,
        0.0,
        1.0
      ],
      "name": "normal_kart_root.polymsh"
    },
    {
      "mesh": 9,
      "name": "normal_kart_root.polymsh_material_2.029_0"
    },
    {
      "mesh": 10,
      "name": "normal_kart_root.polymsh_material_1.032_0"
    },
    {
      "children": [
        24
      ],
      "matrix": [
        100.0,
        0.0,
        0.0,
        0.0,
        0.0,
        99.99998724200307,
        0.05051335687136853,
        0.0,
        0.0,
        -0.05051335687136853,
        99.99998724200307,
        0.0,
        0.0,
        0.0,
        0.0,
        1.0
      ],
      "name": "normal_kart_root.polymsh54"
    },
    {
      "mesh": 11,
      "name": "normal_kart_root.polymsh54_material_1.032_0"
    },
    {
      "children": [
        26
      ],
      "matrix": [
        100.0,
        0.0,
        0.0,
        0.0,
        0.0,
        99.99998724200307,
        0.05051335687136853,
        0.0,
        0.0,
        -0.05051335687136853,
        99.99998724200307,
        0.0,
        0.0,
        0.0,
        0.0,
        1.0
      ],
      "name": "normal_kart_root.polymsh53"
    },
    {
      "mesh": 12,
      "name": "normal_kart_root.polymsh53_material_1.032_0"
    },
    {
      "children": [
        28,
        29
      ],
      "matrix": [
        100.0,
        0.0,
        0.0,
        0.0,
        0.0,
        99.99998724200307,
        0.05051335687136853,
        0.0,
        0.0,
        -0.05051335687136853,
        99.99998724200307,
        0.0,
        0.0,
        0.0,
        0.0,
        1.0
      ],
      "name": "normal_kart_root.polymsh55"
    },
    {
      "mesh": 13,
      "name": "normal_kart_root.polymsh55_material_4.025_0"
    },
    {
      "mesh": 14,
      "name": "normal_kart_root.polymsh55_material_1.032_0"
    },
    {
      "children": [
        31
      ],
      "matrix": [
        100.0,
        0.0,
        0.0,
        0.0,
        0.0,
        99.99998724200307,
        0.05051335687136853,
        0.0,
        0.0,
        -0.05051335687136853,
        99.99998724200307,
        0.0,
        0.0,
        -34.297813415527344,
        58.86565399169922,
        1.0
      ],
      "name": "normal_kart_root.cylinder16"
    },
    {
      "mesh": 15,
      "name": "normal_kart_root.cylinder16_material_1.032_0"
    },
    {
      "children": [
        33
      ],
      "matrix": [
        100.0,
        0.0,
        0.0,
        0.0,
        0.0,
        99.99998724200307,
        0.05051335687136853,
        0.0,
        0.0,
        -0.05051335687136853,
        99.99998724200307,
        0.0,
        0.0,
        0.0,
        0.0,
        1.0
      ],
      "name": "normal_kart_root.polymsh_detached8"
    },
    {
      "mesh": 16,
      "name": "normal_kart_root.polymsh_detached8_material_1.032_0"
    },
    {
      "children": [
        35
      ],
      "matrix": [
        100.0,
        0.0,
        0.0,
        0.0,
        0.0,
        99.99998724200307,
        0.05051335687136853,
        0.0,
        0.0,
        -0.05051335687136853,
        99.99998724200307,
        0.0,
        0.0,
        0.0,
        0.0,
        1.0
      ],
      "name": "normal_kart_root.sphere"
    },
    {
      "mesh": 17,
      "name": "normal_kart_root.sphere_material_1.032_0"
    },
    {
      "children": [
        37
      ],
      "matrix": [
        100.0,
        0.0,
        0.0,
        0.0,
        0.0,
        99.99998724200307,
        0.05051335687136853,
        0.0,
        0.0,
        -0.05051335687136853,
        99.99998724200307,
        0.0,
        545.3167114257813,
        169.4237060546875,
        485.5799255371094,
        1.0
      ],
      "name": "normal_kart_root.polymsh_detached"
    },
    {
      "mesh": 18,
      "name": "normal_kart_root.polymsh_detached_material_4.025_0"
    }
  ],
  "samplers": [
    {
      "magFilter": 9729,
      "minFilter": 9987,
      "wrapS": 10497,
      "wrapT": 10497
    }
  ],
  "scene": 0,
  "scenes": [
    {
      "name": "Sketchfab_Scene",
      "nodes": [
        0
      ]
    }
  ],
  "textures": [
    {
      "sampler": 0,
      "source": 0
    },
    {
      "sampler": 0,
      "source": 1
    },
    {
      "sampler": 0,
      "source": 2
    },
    {
      "sampler": 0,
      "source": 3
    },
    {
      "sampler": 0,
      "source": 4
    }
  ]
}
